<?xml version="1.0" encoding="UTF-8"?>
<svg version="1.1" xmlns="http://www.w3.org/2000/svg" width="556" height="449">
<path d="M0 0 C4.640625 -0.061875 9.28125 -0.12375 14.0625 -0.1875 C16.23791382 -0.22846802 16.23791382 -0.22846802 18.45727539 -0.27026367 C30.4763789 -0.34789244 30.4763789 -0.34789244 36 3 C38.54971309 5.96095713 38.96968874 7.65445166 39.3125 11.5625 C39.02962563 14.6741181 38.65799999 16.40937502 37 19 C37.66 19.66 38.32 20.32 39 21 C39.125 24.625 39.125 24.625 39 28 C39.66 28.33 40.32 28.66 41 29 C40.34 29 39.68 29 39 29 C38.9175 29.7425 38.835 30.485 38.75 31.25 C37.84562401 34.56604529 36.6285474 35.83531391 34 38 C30.46173745 39.17942085 27.65851274 39.11289189 23.92578125 39.09765625 C22.67450439 39.09515869 21.42322754 39.09266113 20.1340332 39.09008789 C17.74737427 39.07643188 17.74737427 39.07643188 15.3125 39.0625 C10.259375 39.041875 5.20625 39.02125 0 39 C0 26.13 0 13.26 0 0 Z M9 8 C9 10.31 9 12.62 9 15 C12.12498063 15.02895976 15.2499269 15.04678483 18.375 15.0625 C19.26445312 15.07087891 20.15390625 15.07925781 21.0703125 15.08789062 C21.92109375 15.09111328 22.771875 15.09433594 23.6484375 15.09765625 C24.82672119 15.10551147 24.82672119 15.10551147 26.02880859 15.11352539 C28.07772668 15.12573953 28.07772668 15.12573953 30 14 C29.65555119 11.52733235 29.65555119 11.52733235 29 9 C26.703463 7.8517315 25.41686833 7.88438825 22.8671875 7.90234375 C22.06152344 7.90556641 21.25585938 7.90878906 20.42578125 7.91210938 C19.58402344 7.92048828 18.74226563 7.92886719 17.875 7.9375 C16.60076172 7.94426758 16.60076172 7.94426758 15.30078125 7.95117188 C13.20049091 7.96297126 11.1002367 7.98090694 9 8 Z M9 23 C9 25.64 9 28.28 9 31 C12.12492251 31.05791844 15.24970766 31.09356746 18.375 31.125 C19.70917969 31.15013672 19.70917969 31.15013672 21.0703125 31.17578125 C21.92109375 31.18222656 22.771875 31.18867188 23.6484375 31.1953125 C24.43395996 31.20578613 25.21948242 31.21625977 26.02880859 31.22705078 C28.234465 31.17990127 28.234465 31.17990127 30 29 C30.16687448 26.41645782 30.16687448 26.41645782 30 24 C27.23434618 23.07811539 25.61716298 22.88214778 22.76953125 22.90234375 C21.56586914 22.90717773 21.56586914 22.90717773 20.33789062 22.91210938 C19.08782227 22.92467773 19.08782227 22.92467773 17.8125 22.9375 C16.5450293 22.94426758 16.5450293 22.94426758 15.25195312 22.95117188 C13.16793845 22.96294597 11.08396023 22.9808811 9 23 Z " fill="#262526" transform="translate(178,205)"/>
<path d="M0 0 C0.87269531 -0.02578125 1.74539062 -0.0515625 2.64453125 -0.078125 C5.71677259 0.31829324 6.96932881 1.11362688 9.1875 3.25 C9.89310879 4.56314068 10.55696314 5.89920561 11.1875 7.25 C12.42263344 8.90229772 13.69707507 10.52561606 15 12.125 C15.66644531 12.94742188 16.33289063 13.76984375 17.01953125 14.6171875 C19.39722238 17.50468988 21.78962362 20.37924399 24.1875 23.25 C24.21255615 22.5887915 24.2376123 21.92758301 24.26342773 21.24633789 C24.37903102 18.26817695 24.50191754 15.2903608 24.625 12.3125 C24.66431641 11.27158203 24.70363281 10.23066406 24.74414062 9.15820312 C24.78603516 8.16884766 24.82792969 7.17949219 24.87109375 6.16015625 C24.90775146 5.24371338 24.94440918 4.32727051 24.98217773 3.38305664 C25.1875 1.25 25.1875 1.25 26.1875 0.25 C29.6875 0.125 29.6875 0.125 33.1875 0.25 C35.23263053 2.29513053 34.35154679 6.55905178 34.35546875 9.37109375 C34.36046135 10.5937368 34.36046135 10.5937368 34.36555481 11.84107971 C34.37062742 13.56860793 34.37296303 15.29614598 34.37280273 17.02368164 C34.37498792 19.67285245 34.39313621 22.32160616 34.41210938 24.97070312 C34.41504344 26.6458319 34.41702815 28.32096267 34.41796875 29.99609375 C34.42515427 30.79196396 34.43233978 31.58783417 34.43974304 32.40782166 C34.41632227 38.02117773 34.41632227 38.02117773 32.1875 40.25 C25.00328947 39.79385965 25.00328947 39.79385965 21.1875 37.25 C20.8575 36.26 20.5275 35.27 20.1875 34.25 C19.589375 33.651875 18.99125 33.05375 18.375 32.4375 C15.86331183 29.92581183 14.15735913 27.2047887 12.1875 24.25 C10.61072696 22.38971851 9.00053144 20.56927217 7.359375 18.765625 C6.1875 17.25 6.1875 17.25 6.1875 15.25 C5.1975 15.25 4.2075 15.25 3.1875 15.25 C3.24079468 16.2872522 3.24079468 16.2872522 3.29516602 17.34545898 C3.45215181 20.45922906 3.60118123 23.57332938 3.75 26.6875 C3.80607422 27.77611328 3.86214844 28.86472656 3.91992188 29.98632812 C3.96826172 31.02080078 4.01660156 32.05527344 4.06640625 33.12109375 C4.1135376 34.07943115 4.16066895 35.03776855 4.20922852 36.02514648 C4.1875 38.25 4.1875 38.25 3.1875 39.25 C0.53286879 39.70459858 -2.13439138 39.95243238 -4.8125 40.25 C-6.10450938 36.31046197 -5.956491 32.3347563 -5.9453125 28.23828125 C-5.94626923 27.46945114 -5.94722595 26.70062103 -5.94821167 25.90849304 C-5.94889056 24.28884804 -5.94705663 22.66920028 -5.94287109 21.04956055 C-5.9374967 18.56097378 -5.94283714 16.0725657 -5.94921875 13.58398438 C-5.94855835 12.01041627 -5.94727797 10.43684827 -5.9453125 8.86328125 C-5.94733673 8.11540848 -5.94936096 7.36753571 -5.95144653 6.59700012 C-5.92463296 0.74680088 -5.83813834 0.10257344 0 0 Z " fill="#201F20" transform="translate(227.8125,204.75)"/>
<path d="M0 0 C0.95970703 -0.00644531 1.91941406 -0.01289063 2.90820312 -0.01953125 C10.14189927 0.08909763 15.78901155 1.42960847 21.1484375 6.46875 C22.55655972 9.39086829 22.67168668 11.89370476 22.8125 15.125 C22.96294757 19.4938375 22.96294757 19.4938375 23.80859375 23.75 C24.60177155 27.67500356 22.19908192 31.35843116 20.1875 34.625 C15.40825165 38.60770696 11.51312744 39.76170274 5.421875 39.72265625 C4.53242188 39.71943359 3.64296875 39.71621094 2.7265625 39.71289062 C1.34597656 39.70032227 1.34597656 39.70032227 -0.0625 39.6875 C-1.46628906 39.68073242 -1.46628906 39.68073242 -2.8984375 39.67382812 C-5.20319041 39.66206918 -7.50781227 39.64563426 -9.8125 39.625 C-9.8125 38.965 -9.8125 38.305 -9.8125 37.625 C-10.410625 37.356875 -11.00875 37.08875 -11.625 36.8125 C-14.0004742 35.52295687 -15.16772629 34.77585792 -16.8125 32.625 C-17.53327396 29.92495787 -18.09902229 27.36683654 -18.5625 24.625 C-18.70042969 23.90054688 -18.83835937 23.17609375 -18.98046875 22.4296875 C-20.30244186 15.0429924 -17.65275285 9.66234662 -13.87890625 3.43359375 C-10.16045405 -0.88969958 -5.30874295 -0.17613613 0 0 Z M-7.8125 11.625 C-9.15939915 14.19599402 -9.15939915 14.19599402 -9.8125 16.625 C-9.1525 16.625 -8.4925 16.625 -7.8125 16.625 C-7.8125 17.945 -7.8125 19.265 -7.8125 20.625 C-8.4725 20.625 -9.1325 20.625 -9.8125 20.625 C-9.8125 21.285 -9.8125 21.945 -9.8125 22.625 C-9.1525 22.625 -8.4925 22.625 -7.8125 22.625 C-7.709375 23.73875 -7.60625 24.8525 -7.5 26 C-7.273125 27.19625 -7.04625 28.3925 -6.8125 29.625 C-3.38920149 31.90719901 -1.97112332 31.92241163 2.0625 31.9375 C3.09117187 31.95425781 4.11984375 31.97101563 5.1796875 31.98828125 C8.58262812 31.57727673 10.45517361 30.66316779 13.1875 28.625 C14.99140703 23.76832723 14.77156169 17.69167984 13.375 12.75 C12.23193152 10.3254767 12.23193152 10.3254767 9.1875 8.625 C6.38605546 8.26900836 6.38605546 8.26900836 3.3125 8.3125 C2.28382813 8.29574219 1.25515625 8.27898437 0.1953125 8.26171875 C-3.22102987 8.67434192 -5.07324471 9.5717749 -7.8125 11.625 Z " fill="#232222" transform="translate(412.8125,204.375)"/>
<path d="M0 0 C1.15564453 -0.00128906 2.31128906 -0.00257813 3.50195312 -0.00390625 C4.70400391 -0.00003906 5.90605469 0.00382813 7.14453125 0.0078125 C8.96500977 0.00201172 8.96500977 0.00201172 10.82226562 -0.00390625 C11.97404297 -0.00261719 13.12582031 -0.00132812 14.3125 0 C15.37106201 0.00112793 16.42962402 0.00225586 17.52026367 0.00341797 C19.95703125 0.1328125 19.95703125 0.1328125 20.95703125 1.1328125 C21.08203125 4.1328125 21.08203125 4.1328125 20.95703125 7.1328125 C19.18212579 8.90771796 16.57918223 8.36781223 14.171875 8.44921875 C12.41713867 8.51206055 12.41713867 8.51206055 10.62695312 8.57617188 C9.39525391 8.61548828 8.16355469 8.65480469 6.89453125 8.6953125 C5.65896484 8.73849609 4.42339844 8.78167969 3.15039062 8.82617188 C0.0860579 8.93265448 -2.97835948 9.03466674 -6.04296875 9.1328125 C-5.71296875 10.7828125 -5.38296875 12.4328125 -5.04296875 14.1328125 C-4.18131104 14.13897583 -4.18131104 14.13897583 -3.30224609 14.14526367 C-0.67314228 14.17837247 1.95369654 14.24902943 4.58203125 14.3203125 C5.48566406 14.32611328 6.38929688 14.33191406 7.3203125 14.33789062 C11.6723798 14.48084174 15.00632693 14.67109218 18.5390625 17.37890625 C21.69556743 20.97395629 21.92990902 23.00624931 22.13671875 27.625 C21.80328637 32.27855631 20.29699447 35.79284928 16.95703125 39.1328125 C14.51958228 39.30769504 12.19767045 39.36458655 9.76171875 39.328125 C9.05427521 39.3252951 8.34683167 39.32246521 7.61795044 39.31954956 C5.35580615 39.30834387 3.0940561 39.28323929 0.83203125 39.2578125 C-0.70051512 39.24778317 -2.23306769 39.23865724 -3.765625 39.23046875 C-7.52489176 39.20840336 -11.28386339 39.17387146 -15.04296875 39.1328125 C-15.04296875 36.1628125 -15.04296875 33.1928125 -15.04296875 30.1328125 C-6.46296875 30.1328125 2.11703125 30.1328125 10.95703125 30.1328125 C11.28703125 28.4828125 11.61703125 26.8328125 11.95703125 25.1328125 C8.73951515 24.1101911 5.62749401 23.99836547 2.26977539 23.89282227 C-4.37485186 23.66611873 -9.69841582 23.43452583 -15.04296875 19.1328125 C-17.12681258 14.96512484 -15.93241632 9.56794904 -15.04296875 5.1328125 C-10.79965073 0.20138886 -6.20421915 0.00658972 0 0 Z " fill="#222221" transform="translate(136.04296875,204.8671875)"/>
<path d="M0 0 C1.16853516 -0.02900391 2.33707031 -0.05800781 3.54101562 -0.08789062 C10.68212307 -0.14025069 15.40095264 0.40189806 21.4375 4.3125 C24.59771694 7.70973321 25.7088104 10.39046248 26 14.9375 C25.8544113 18.54688654 25.6863697 19.0636303 23 21.75 C22.154375 22.265625 21.30875 22.78125 20.4375 23.3125 C20.1075 23.9725 19.7775 24.6325 19.4375 25.3125 C18.7775 25.3125 18.1175 25.3125 17.4375 25.3125 C18.22383922 26.46199588 19.01676258 27.60698989 19.8125 28.75 C20.25335938 29.38808594 20.69421875 30.02617187 21.1484375 30.68359375 C22.35910853 32.44990928 22.35910853 32.44990928 24.4375 33.3125 C25.0625 36.375 25.0625 36.375 25.4375 39.3125 C21.92636504 39.94831921 18.92224688 40.16973759 15.4375 39.3125 C13.08404695 36.91633456 11.50585441 34.49182689 9.8125 31.59765625 C8.64292134 29.19195423 8.64292134 29.19195423 6.4375 28.3125 C6.4375 27.3225 6.4375 26.3325 6.4375 25.3125 C4.9574159 25.42612262 3.47839926 25.55372908 2 25.6875 C1.17628906 25.75710937 0.35257812 25.82671875 -0.49609375 25.8984375 C-1.17800781 26.03507812 -1.85992187 26.17171875 -2.5625 26.3125 C-4.1101555 29.40781099 -4.00659451 32.6791763 -4.28125 36.09765625 C-4.5625 38.3125 -4.5625 38.3125 -5.5625 39.3125 C-9.0625 39.4375 -9.0625 39.4375 -12.5625 39.3125 C-13.5625 38.3125 -13.5625 38.3125 -13.67602539 36.36303711 C-13.66817017 35.1140564 -13.66817017 35.1140564 -13.66015625 33.83984375 C-13.65693359 32.94072266 -13.65371094 32.04160156 -13.65039062 31.11523438 C-13.64201172 30.16970703 -13.63363281 29.22417969 -13.625 28.25 C-13.62048828 27.30060547 -13.61597656 26.35121094 -13.61132812 25.37304688 C-13.5995011 23.01946935 -13.58302025 20.66601523 -13.5625 18.3125 C-11.01690193 17.03970096 -9.2861297 17.23043587 -6.44140625 17.28515625 C-4.91483398 17.30352539 -4.91483398 17.30352539 -3.35742188 17.32226562 C-1.2063118 17.35735926 0.94473748 17.39640772 3.09570312 17.43945312 C4.11470703 17.45041016 5.13371094 17.46136719 6.18359375 17.47265625 C7.11872803 17.48949463 8.0538623 17.50633301 9.01733398 17.52368164 C11.69925849 17.48485689 11.69925849 17.48485689 14.4375 15.3125 C14.09305119 12.83983235 14.09305119 12.83983235 13.4375 10.3125 C10.81026604 8.99888302 8.71139439 9.09996091 5.7734375 8.99609375 C4.65195312 8.95419922 3.53046875 8.91230469 2.375 8.86914062 C1.199375 8.82982422 0.02375 8.79050781 -1.1875 8.75 C-2.37085938 8.70681641 -3.55421875 8.66363281 -4.7734375 8.61914062 C-7.70300328 8.51282574 -10.63265588 8.41079358 -13.5625 8.3125 C-13.60491723 5.97955225 -13.60342937 3.64547433 -13.5625 1.3125 C-10.93397245 -1.31602755 -3.52891924 0.02853574 0 0 Z " fill="#201F1F" transform="translate(366.5625,204.6875)"/>
<path d="M0 0 C2.64 0 5.28 0 8 0 C8 8.25 8 16.5 8 25 C8.66 25.33 9.32 25.66 10 26 C10 26.99 10 27.98 10 29 C13.20773612 30.06924537 15.62984818 30.16684956 19 30.1875 C20.051875 30.20167969 21.10375 30.21585938 22.1875 30.23046875 C25.20758688 30.21180926 25.20758688 30.21180926 28 28 C28.4941582 25.32216258 28.4941582 25.32216258 28.4765625 22.1875 C28.5075 21.02992188 28.5384375 19.87234375 28.5703125 18.6796875 C28.58835937 17.46539062 28.60640625 16.25109375 28.625 15 C28.67586874 12.60408254 28.73036957 10.20823856 28.7890625 7.8125 C28.80662598 6.74644531 28.82418945 5.68039063 28.84228516 4.58203125 C29 2 29 2 30 0 C32.64 0 35.28 0 38 0 C38 0.66 38 1.32 38 2 C38.66 2.33 39.32 2.66 40 3 C39.8594438 6.33357738 39.71158198 9.66679389 39.5625 13 C39.52318359 13.93457031 39.48386719 14.86914062 39.44335938 15.83203125 C38.75346383 31.00973325 38.75346383 31.00973325 35.8125 34.875 C28.73306061 40.22390976 20.48880871 39.5731993 12 39 C7.33251332 38.16975947 4.63795827 36.74960097 1.5 33.0625 C0 30 0 30 0 26 C-0.66 25.67 -1.32 25.34 -2 25 C-1.34 25 -0.68 25 0 25 C-0.03552979 24.27820557 -0.07105957 23.55641113 -0.10766602 22.81274414 C-0.264642 19.56289576 -0.41367651 16.31273147 -0.5625 13.0625 C-0.61857422 11.92619141 -0.67464844 10.78988281 -0.73242188 9.61914062 C-0.78076172 8.53955078 -0.82910156 7.45996094 -0.87890625 6.34765625 C-0.9260376 5.34742432 -0.97316895 4.34719238 -1.02172852 3.31665039 C-1 1 -1 1 0 0 Z " fill="#2D2D2D" transform="translate(309,205)"/>
<path d="M0 0 C1.39120471 0.00015906 2.78241534 0.00585033 4.17358398 0.01586914 C4.90463852 0.01728409 5.63569305 0.01869904 6.38890076 0.02015686 C8.73253406 0.02577131 11.07607313 0.03832617 13.41967773 0.05102539 C15.00496282 0.05603853 16.59024939 0.06060176 18.17553711 0.06469727 C22.06945383 0.07574542 25.96329979 0.09301967 29.85717773 0.11352539 C29.85717773 2.75352539 29.85717773 5.39352539 29.85717773 8.11352539 C21.60717773 8.11352539 13.35717773 8.11352539 4.85717773 8.11352539 C5.18717773 10.42352539 5.51717773 12.73352539 5.85717773 15.11352539 C18.72717773 15.60852539 18.72717773 15.60852539 31.85717773 16.11352539 C32.35217773 19.57852539 32.35217773 19.57852539 32.85717773 23.11352539 C30.23364168 25.73706144 22.75774811 24.34837793 19.23217773 24.36352539 C18.05526367 24.38415039 16.87834961 24.40477539 15.66577148 24.42602539 C9.33033774 24.45453128 4.36077366 24.4125997 -1.14282227 21.11352539 C-4.22626937 16.48835474 -4.28129849 12.33487134 -4.26782227 6.86352539 C-4.27040039 5.80649414 -4.27297852 4.74946289 -4.27563477 3.66040039 C-4.07932471 -0.10413369 -3.84624049 0.13893435 0 0 Z " fill="#2A2A2A" transform="translate(272.142822265625,219.886474609375)"/>
<path d="M0 0 C3.5 0.125 3.5 0.125 4.5 1.125 C4.61340974 3.84054392 4.6641802 6.52970043 4.66796875 9.24609375 C4.67129715 10.06118912 4.67462555 10.87628448 4.67805481 11.71607971 C4.68312742 13.44360793 4.68546303 15.17114598 4.68530273 16.89868164 C4.68748792 19.54785245 4.70563621 22.19660616 4.72460938 24.84570312 C4.72754344 26.5208319 4.72952815 28.19596267 4.73046875 29.87109375 C4.73765427 30.66696396 4.74483978 31.46283417 4.75224304 32.28282166 C4.72882227 37.89617773 4.72882227 37.89617773 2.5 40.125 C-4.68421053 39.66885965 -4.68421053 39.66885965 -8.5 37.125 C-8.995 35.64 -8.995 35.64 -9.5 34.125 C-10.304375 33.50625 -10.304375 33.50625 -11.125 32.875 C-12.5 31.125 -12.5 31.125 -12.125 27.6875 C-11.91875 26.511875 -11.7125 25.33625 -11.5 24.125 C-11.84659295 21.80341935 -11.84659295 21.80341935 -12.5 20.125 C-11.84 19.795 -11.18 19.465 -10.5 19.125 C-10.5 20.115 -10.5 21.105 -10.5 22.125 C-8.85 22.455 -7.2 22.785 -5.5 23.125 C-5.46241577 22.13318726 -5.46241577 22.13318726 -5.42407227 21.12133789 C-5.30846898 18.14317695 -5.18558246 15.1653608 -5.0625 12.1875 C-5.00352539 10.62612305 -5.00352539 10.62612305 -4.94335938 9.03320312 C-4.90146484 8.04384766 -4.85957031 7.05449219 -4.81640625 6.03515625 C-4.76141968 4.66049194 -4.76141968 4.66049194 -4.70532227 3.25805664 C-4.35856907 -0.3443009 -3.78492529 0.1351759 0 0 Z " fill="#1A1919" transform="translate(257.5,204.875)"/>
<path d="M0 0 C2.97 0 5.94 0 9 0 C9 13 9 26 9 39 C2.84765625 39.09765625 2.84765625 39.09765625 1 39 C-0.71084501 37.28915499 -0.13014689 35.05639907 -0.1328125 32.72265625 C-0.13410156 31.65208984 -0.13539063 30.58152344 -0.13671875 29.47851562 C-0.13285156 28.35123047 -0.12898437 27.22394531 -0.125 26.0625 C-0.12886719 24.93908203 -0.13273438 23.81566406 -0.13671875 22.65820312 C-0.13542969 21.58634766 -0.13414062 20.51449219 -0.1328125 19.41015625 C-0.13168457 18.42152588 -0.13055664 17.43289551 -0.12939453 16.41430664 C0 14 0 14 1 12 C0.67 11.34 0.34 10.68 0 10 C-0.06996014 8.29297265 -0.08440154 6.58331997 -0.0625 4.875 C-0.05347656 3.96492187 -0.04445312 3.05484375 -0.03515625 2.1171875 C-0.02355469 1.41851562 -0.01195312 0.71984375 0 0 Z " fill="#0A0909" transform="translate(163,205)"/>
<path d="M0 0 C2.64 0 5.28 0 8 0 C8 8.25 8 16.5 8 25 C8.66 25.33 9.32 25.66 10 26 C10 26.99 10 27.98 10 29 C10.99 29.33 11.98 29.66 13 30 C13 30.99 13 31.98 13 33 C13.66 33.33 14.32 33.66 15 34 C14.34 35.32 13.68 36.64 13 38 C8.81766696 37.75398041 6.49863166 37.37939366 3.125 34.8125 C0.7890033 31.72073967 0.43009248 29.78481379 0 26 C-0.66 25.67 -1.32 25.34 -2 25 C-1.34 25 -0.68 25 0 25 C-0.03552979 24.27820557 -0.07105957 23.55641113 -0.10766602 22.81274414 C-0.264642 19.56289576 -0.41367651 16.31273147 -0.5625 13.0625 C-0.61857422 11.92619141 -0.67464844 10.78988281 -0.73242188 9.61914062 C-0.78076172 8.53955078 -0.82910156 7.45996094 -0.87890625 6.34765625 C-0.9260376 5.34742432 -0.97316895 4.34719238 -1.02172852 3.31665039 C-1 1 -1 1 0 0 Z " fill="#242424" transform="translate(309,205)"/>
<path d="M0 0 C1.47583955 0.0001591 2.95168467 0.00585225 4.42749023 0.01586914 C5.20293686 0.01728409 5.97838348 0.01869904 6.77732849 0.02015686 C9.26361893 0.02577194 11.74982059 0.03832693 14.23608398 0.05102539 C15.91772331 0.05603845 17.59936405 0.06060169 19.28100586 0.06469727 C23.41189965 0.07574626 27.54272674 0.09302094 31.67358398 0.11352539 C31.34358398 1.43352539 31.01358398 2.75352539 30.67358398 4.11352539 C31.33358398 4.44352539 31.99358398 4.77352539 32.67358398 5.11352539 C32.01358398 6.10352539 31.35358398 7.09352539 30.67358398 8.11352539 C27.97818084 8.38038752 25.51510934 8.46170612 22.82202148 8.40649414 C22.04798981 8.4022493 21.27395813 8.39800446 20.47647095 8.39363098 C18.00015722 8.37681537 15.5246524 8.33915934 13.04858398 8.30102539 C11.37151239 8.28598221 9.69442806 8.27229317 8.01733398 8.26000977 C3.90243817 8.2269026 -0.2118517 8.17510176 -4.32641602 8.11352539 C-4.36883325 5.78057764 -4.36734539 3.44649972 -4.32641602 1.11352539 C-3.32641602 0.11352539 -3.32641602 0.11352539 0 0 Z " fill="#202020" transform="translate(272.326416015625,204.886474609375)"/>
<path d="M0 0 C1.084021 0.00523682 2.16804199 0.01047363 3.28491211 0.01586914 C5.03964844 0.02070313 5.03964844 0.02070313 6.82983398 0.02563477 C8.67738281 0.03820312 8.67738281 0.03820312 10.56225586 0.05102539 C12.41560547 0.05779297 12.41560547 0.05779297 14.30639648 0.06469727 C17.37089703 0.07652931 20.43530307 0.09301366 23.49975586 0.11352539 C23.49975586 0.77352539 23.49975586 1.43352539 23.49975586 2.11352539 C24.81975586 2.44352539 26.13975586 2.77352539 27.49975586 3.11352539 C27.16975586 5.42352539 26.83975586 7.73352539 26.49975586 10.11352539 C25.79761963 9.95505127 25.0954834 9.79657715 24.37207031 9.63330078 C21.39528045 9.09461947 18.56491783 8.90560813 15.54272461 8.79711914 C14.4309082 8.75522461 13.3190918 8.71333008 12.17358398 8.67016602 C11.0230957 8.63084961 9.87260742 8.5915332 8.68725586 8.55102539 C7.51743164 8.5078418 6.34760742 8.4646582 5.14233398 8.42016602 C2.26158555 8.3143426 -0.61924537 8.21225714 -3.50024414 8.11352539 C-3.54266137 5.78057764 -3.54117351 3.44649972 -3.50024414 1.11352539 C-2.50024414 0.11352539 -2.50024414 0.11352539 0 0 Z " fill="#1D1B1D" transform="translate(356.500244140625,204.886474609375)"/>
<path d="M0 0 C-0.66 1.98 -1.32 3.96 -2 6 C-0.35 6.66 1.3 7.32 3 8 C0.4013299 10.5986701 -1.39842758 10.63249261 -5 11 C-5.99 10.67 -6.98 10.34 -8 10 C-8 9.34 -8 8.68 -8 8 C-14.27 8 -20.54 8 -27 8 C-27.66 6.68 -28.32 5.36 -29 4 C-24.26573458 2.12388243 -20.44491102 1.83743772 -15.375 2 C-9.58895053 2.18478402 -5.46438433 0 0 0 Z " fill="#080707" transform="translate(213,219)"/>
<path d="M0 0 C4.87072783 4.56630734 8.89156398 9.74976539 13 15 C12.01 15.33 11.02 15.66 10 16 C10 17.32 10 18.64 10 20 C9 23 9 23 7 24 C6.46375 23.154375 5.9275 22.30875 5.375 21.4375 C3.24226343 18.20770829 0.77346223 15.37479512 -1.828125 12.515625 C-3 11 -3 11 -3 9 C-4.32 8.67 -5.64 8.34 -7 8 C-7 7.01 -7 6.02 -7 5 C-4.69 5.33 -2.38 5.66 0 6 C0 4.68 0 3.36 0 2 C0 1.34 0 0.68 0 0 Z " fill="#2E2D2E" transform="translate(237,211)"/>
<path d="M0 0 C0.66 0.33 1.32 0.66 2 1 C1.83701416 1.83354004 1.67402832 2.66708008 1.50610352 3.52587891 C0.96132214 7.26550217 0.88722942 10.80735604 0.90234375 14.5859375 C0.9037587 15.28772125 0.90517365 15.989505 0.90663147 16.71255493 C0.9121871 18.93341504 0.92473108 21.15417084 0.9375 23.375 C0.94252074 24.88932145 0.94708264 26.4036445 0.95117188 27.91796875 C0.96214193 31.61201252 0.97937551 35.30599606 1 39 C-1.64 39 -4.28 39 -7 39 C-7 38.67 -7 38.34 -7 38 C-4.69 38 -2.38 38 0 38 C-0.09360474 33.78207923 -0.19971309 29.56471417 -0.31738281 25.34741211 C-0.35564866 23.91292932 -0.39050581 22.47835135 -0.421875 21.04370117 C-0.46757862 18.98061122 -0.52556193 16.91817505 -0.5859375 14.85546875 C-0.6173584 13.61434326 -0.6487793 12.37321777 -0.68115234 11.09448242 C-0.77399209 7.83363899 -0.77399209 7.83363899 -3 5 C-2.01 3.35 -1.02 1.7 0 0 Z " fill="#AAA9A9" transform="translate(171,205)"/>
<path d="M0 0 C-0.17625835 2.37948772 -0.69719773 3.70225849 -2.40234375 5.37890625 C-3.90649092 6.62115486 -5.45129851 7.81376056 -7 9 C-7 6.36 -7 3.72 -7 1 C-2.25 0 -2.25 0 0 0 Z " fill="#090607" transform="translate(171,205)"/>
<path d="M0 0 C3.56006421 3.31085971 4.59949315 5.09379113 5 10 C5.03622333 11.66627298 5.04899842 13.33405374 5 15 C4.34 14.67 3.68 14.34 3 14 C2.37147066 11.66752185 1.84464754 9.30708533 1.375 6.9375 C1.11460937 5.64714844 0.85421875 4.35679687 0.5859375 3.02734375 C0.39257812 2.02832031 0.19921875 1.02929688 0 0 Z " fill="#656263" transform="translate(387,209)"/>
<path d="M0 0 C1.98 0 3.96 0 6 0 C6 0.33 6 0.66 6 1 C4.35 1 2.7 1 1 1 C1.33 3.31 1.66 5.62 2 8 C2.66 8 3.32 8 4 8 C4 9.32 4 10.64 4 12 C3.01 12 2.02 12 1 12 C-0.26237731 9.47524538 -0.09856404 7.68799534 -0.0625 4.875 C-0.05347656 3.96492187 -0.04445312 3.05484375 -0.03515625 2.1171875 C-0.02355469 1.41851562 -0.01195312 0.71984375 0 0 Z " fill="#888888" transform="translate(163,205)"/>
<path d="M0 0 C1.32 0.66 2.64 1.32 4 2 C4 2.99 4 3.98 4 5 C1.625 6.75 1.625 6.75 -1 8 C-1.66 7.67 -2.32 7.34 -3 7 C-2.01 6.67 -1.02 6.34 0 6 C-0.2784375 4.7934375 -0.2784375 4.7934375 -0.5625 3.5625 C-0.706875 2.716875 -0.85125 1.87125 -1 1 C-0.67 0.67 -0.34 0.34 0 0 Z " fill="#262525" transform="translate(167,211)"/>
<path d="M0 0 C0.33 0 0.66 0 1 0 C1.33 4.95 1.66 9.9 2 15 C-1 12 -1 12 -1.07421875 9.08203125 C-0.94660156 8.00308594 -0.81898437 6.92414063 -0.6875 5.8125 C-0.56761719 4.72582031 -0.44773437 3.63914063 -0.32421875 2.51953125 C-0.21722656 1.68808594 -0.11023438 0.85664063 0 0 Z " fill="#4C4C4C" transform="translate(121,210)"/>
<path d="M0 0 C4.75 0.875 4.75 0.875 7 2 C6.67 3.65 6.34 5.3 6 7 C5.01 6.67 4.02 6.34 3 6 C3.33 4.68 3.66 3.36 4 2 C2.68 1.34 1.36 0.68 0 0 Z " fill="#322F30" transform="translate(380,206)"/>
<path d="" fill="#717171" transform="translate(0,0)"/>
<path d="" fill="#808080" transform="translate(0,0)"/>
<path d="" fill="#FFFFFF" transform="translate(0,0)"/>
<path d="" fill="#000000" transform="translate(0,0)"/>
</svg>
